<?xml version="1.0" encoding="utf-8"?>
<!-- Generator: Adobe Illustrator 24.3.0, SVG Export Plug-In . SVG Version: 6.00 Build 0)  -->
<svg version="1.1" id="Layer_1" xmlns="http://www.w3.org/2000/svg" xmlns:xlink="http://www.w3.org/1999/xlink" x="0px" y="0px"
	 viewBox="0 0 56.7 56.7" style="enable-background:new 0 0 56.7 56.7;" xml:space="preserve">
<g>
	<path d="M27.7,56.4c-0.3,0-0.5,0-0.8,0c-5.4-0.1-10.6-3.2-15-9C7.5,41.5,5.3,34.8,4.8,33c-4-13.5,1-25.5,3.4-30l1.3-2.5l2.2,1.7
		c2.8,2.2,8.6,5.8,16.7,5.9c8.4,0.1,14.5-3.6,17.3-5.8l2.5-1.9l1.1,3c2,5.3,6,19.3-0.3,33.5C46.3,42.6,39.1,55.9,27.7,56.4z
		 M11.1,7.5c-2.2,5-4.8,14.1-1.9,24.1c2.4,8,9,20,17.7,20.1c9.3,0.1,15.9-12.9,17.7-16.9c4.8-10.6,3-21.2,1.2-27.1
		c-3.8,2.4-9.9,5.1-17.6,5C20.7,12.6,14.8,9.9,11.1,7.5z"/>
	<path d="M39.3,35.5c-2,0.1-4-0.3-5.9-1.3c-3-1.5-5.2-4.3-6.1-7.6c-0.9-3.2-0.4-6.6,1.2-9.3l0,0c1.8-2.8,4.8-4.7,8.3-5.2
		c3.7-0.5,7.5,0.6,10.1,2.9c4,3.7,5.1,9.7,2.5,14.4C47.4,33.1,43.4,35.3,39.3,35.5z M32.5,19.8c-1,1.6-1.2,3.6-0.7,5.6
		c0.6,2.1,1.9,3.8,3.7,4.7c3.5,1.8,7.9,0.5,9.8-2.9c1.5-2.8,0.9-6.6-1.5-8.8c-1.6-1.4-3.9-2.1-6.3-1.8C35.4,17,33.5,18.1,32.5,19.8
		L32.5,19.8z"/>
	<path d="M17.5,35c-2,0.1-4-0.3-5.9-1.3c-3-1.5-5.2-4.3-6.1-7.6c-0.9-3.2-0.4-6.6,1.2-9.3l0,0c1.8-2.8,4.8-4.7,8.3-5.2
		c3.7-0.5,7.5,0.6,10.1,2.9c4,3.7,5.1,9.7,2.5,14.4C25.5,32.6,21.6,34.8,17.5,35z M10.6,19.2c-1,1.6-1.2,3.6-0.7,5.6
		c0.6,2.1,1.9,3.8,3.7,4.7c3.5,1.8,7.9,0.5,9.8-2.9c1.5-2.8,0.9-6.6-1.5-8.8c-1.6-1.4-3.9-2.1-6.3-1.8
		C13.5,16.4,11.7,17.6,10.6,19.2L10.6,19.2z"/>
	<path d="M27.1,41.8l-1-0.5c-1.4-0.8-2.8-1.7-4-2.8c-1.4-1.2-2.7-2.7-3.7-4.3l3.9-2.6c0.8,1.2,1.8,2.4,2.9,3.3
		c0.7,0.6,1.4,1.1,2.1,1.6c1.2-0.6,2.3-1.3,3.3-2c1.2-0.9,2.3-1.9,3.3-3.1l3.5,3.1c-1.2,1.4-2.6,2.7-4.1,3.8c-1.6,1.2-3.4,2.2-5.3,3
		L27.1,41.8z"/>
</g>
</svg>
