<?xml version="1.0" encoding="utf-8"?>
<!-- Generator: Adobe Illustrator 25.0.0, SVG Export Plug-In . SVG Version: 6.00 Build 0)  -->
<svg version="1.1" id="Layer_1" xmlns="http://www.w3.org/2000/svg" xmlns:xlink="http://www.w3.org/1999/xlink" x="0px" y="0px"
	 viewBox="0 0 56.7 56.7" style="enable-background:new 0 0 56.7 56.7;" xml:space="preserve">
<style type="text/css">
	.st0{fill:#1D1D1B;}
</style>
<g>
	<path class="st0" d="M42.7,30.6c-0.5-0.3-1.1-0.2-1.7-0.1c-0.6,0.1-1.2,0.2-1.8,0.3c-1.2,0.2-2.4,0.3-3.7,0.4
		c-5.5,0.5-11,0.6-16.5,0.2c-0.4,0-0.7,0.1-0.9,0.4c-0.2-0.3-0.5-0.5-0.9-0.5c-0.6,0-1.2,0.5-1.1,1.1c0.2,2.3,1,4.4,2.1,6.5
		c1,1.9,2.1,3.8,3.5,5.4c1.5,1.7,3.6,2.4,5.9,2.3c2.2-0.1,4.3-0.6,6.3-1.4c3.8-1.6,6.8-4.8,8.4-8.6c0.4-1,0.7-2,1-3
		C43.5,32.6,43.8,31.2,42.7,30.6z M41,33.3c-0.1,0.6-0.3,1.2-0.5,1.8c-0.4,1.1-1,2.1-1.6,3.1c-1.3,1.9-3.1,3.4-5.1,4.5
		c-2.1,1.1-4.6,1.7-7,1.6c-1.1,0-2.2-0.4-3-1.2c-0.8-0.8-1.4-1.8-2-2.7c-1.3-2.1-2.6-4.4-3.1-6.8c0.1,0.1,0.3,0.1,0.5,0.1
		c3.8,0.2,7.7,0.3,11.5,0.1c1.9-0.1,3.8-0.2,5.7-0.4c1-0.1,1.9-0.2,2.9-0.3c0.5-0.1,0.9-0.1,1.4-0.2c0.1,0,0.3-0.1,0.5-0.1
		C41.1,32.9,41,33.1,41,33.3z"/>
	<g>
		<path class="st0" d="M29.1,53.5c-5.8,0-11.4-2.2-15.9-6.2C8.1,42.8,5,36.4,4.7,29.8l0,0C4.1,16.9,13.8,5.3,26.4,3.9
			C33,3.3,39.8,5.6,45,10.3c5.4,5,8.5,11.9,8.4,18.9C53.1,41.8,43,52.7,30.7,53.5C30.2,53.5,29.7,53.5,29.1,53.5z M8.4,29.6
			c0.3,5.6,2.9,11.1,7.3,15c4.2,3.7,9.5,5.6,14.8,5.2c10.4-0.7,19-10,19.2-20.7c0.1-6-2.5-11.9-7.2-16.1c-4.4-4-10.1-6-15.7-5.4
			C16.1,8.7,7.9,18.6,8.4,29.6L8.4,29.6z"/>
	</g>
	<path class="st0" d="M44.3,20.6c-0.1-1.5-1.2-2.7-2.5-3.3c-0.1,0-0.1-0.1-0.2-0.1c-0.1,0-0.1,0-0.2,0c-1.6-0.5-3.3,0.2-4.5,1.3
		c-0.4-0.5-0.8-0.9-1.4-1.2c-1.6-0.8-4.1-0.6-5,1.1c-1,1.9,0.4,4.2,1.3,5.8c0.9,1.7,2.2,3.2,3.6,4.5c0.5,0.5,1.1,0.4,1.6,0
		c1.2-1,2.4-1.9,3.5-2.9c1-0.8,2-1.7,2.8-2.7C43.9,22.4,44.4,21.6,44.3,20.6z M42,20.9C42,20.9,42,20.9,42,20.9c0,0,0,0.1,0,0.1
		c0.1-0.1,0,0,0,0c0,0,0,0,0,0c-0.1,0.1-0.1,0.2-0.2,0.4c0,0,0,0,0,0c0,0,0,0,0,0c0,0,0,0,0,0c0,0,0,0,0,0c0,0,0,0,0,0
		c-0.1,0.1-0.1,0.2-0.2,0.2c-0.2,0.2-0.3,0.4-0.5,0.5c-1.5,1.4-3,2.8-4.6,4.1c-0.8-0.8-1.5-1.7-2.1-2.6c-0.3-0.5-0.6-1.1-0.9-1.7
		c-0.3-0.7-0.8-1.4-0.9-2.2c0-0.4,0.1-0.6,0.4-0.7c0.5-0.2,1-0.2,1.5,0c0.5,0.2,0.7,0.5,1,1c0,0,0,0,0,0c0,0,0,0,0,0
		c0,0,0,0.1,0,0.1c0,0,0,0.1,0,0.1c0,0.1,0.1,0.2,0.1,0.3c0.1,0.2,0.1,0.5,0,0.1c0.1,0.5,0.3,1,0.8,1.1c0.5,0.1,1.1-0.1,1.3-0.5
		c0.4-0.7,0.9-1.3,1.6-1.7c0.6-0.3,1.1-0.3,1.7-0.1c0.4,0.1,0.7,0.5,0.9,0.8c0.1,0.2,0.1,0.3,0.2,0.5C42,20.8,42,20.8,42,20.9
		C42,20.9,42,20.9,42,20.9C42,20.9,42,20.9,42,20.9z"/>
	<path class="st0" d="M35.3,20.2C35.3,20.2,35.4,20.3,35.3,20.2C35.4,20.3,35.4,20.3,35.3,20.2C35.3,20.3,35.3,20.3,35.3,20.2
		C35.3,20.2,35.3,20.2,35.3,20.2z"/>
	<path class="st0" d="M41.7,21.4C41.7,21.4,41.7,21.4,41.7,21.4C41.7,21.4,41.7,21.4,41.7,21.4L41.7,21.4z"/>
	<path class="st0" d="M42,21.1C42,21.1,42,21.1,42,21.1L42,21.1C42,20.9,42,21.1,42,21.1z"/>
	<path class="st0" d="M42,20.9C42,20.9,42,20.9,42,20.9C42,20.9,42,20.9,42,20.9C42,20.9,42,20.9,42,20.9z"/>
	<path class="st0" d="M26.5,20.3c-0.2-2.1-2.2-3.8-4.4-3.3c-1,0.2-1.6,1-2.2,1.8c-0.2,0.3-0.4,0.6-0.5,0.9c-0.8-0.7-1.8-1.2-2.8-1.3
		c-1.3-0.1-2.9,0.5-3.5,1.7c-0.7,1.3-0.4,3.1,0.5,4.2c0.7,1,1.8,1.8,2.8,2.5c1,0.6,2.1,1.1,3.2,1.6c0.3,0.1,0.7,0.3,1,0.4
		c0.6,0.2,1,0.2,1.5-0.2c1.2-0.9,2.2-2.1,3-3.3C25.8,23.8,26.6,21.9,26.5,20.3z M24.2,21c-0.3,2.2-1.6,4-3.2,5.5c0,0,0,0,0,0
		c-0.2-0.1-0.3-0.1-0.5-0.2c-0.1,0-0.2-0.1-0.2-0.1c0,0,0,0,0,0c0,0,0,0,0,0c0,0,0,0,0,0c0,0,0,0,0,0h0c0,0,0,0,0,0h0
		c0,0-0.1,0-0.1,0c-1-0.4-2-0.9-2.9-1.5c-0.8-0.5-1.5-1.1-2-1.9c0,0,0-0.1,0-0.1c0,0,0,0,0,0c0,0,0,0,0,0c0,0,0,0,0,0v0
		c0-0.1-0.1-0.2-0.1-0.3C15,22,14.9,21.7,15,21.4c0-0.2,0.2-0.4,0.3-0.5c0,0,0.2-0.1,0.3-0.1c0,0,0,0,0,0c0,0,0,0,0,0
		c0,0,0.1,0,0.1,0c0,0,0,0,0,0c0.1,0,0.1,0,0.2-0.1c0.5-0.1,0.8-0.1,1.3,0.1c0.7,0.3,1.3,0.9,1.8,1.5c0,0,0,0.1,0.1,0.1
		c0,0,0,0,0.1,0.1c0,0,0,0,0,0c0,0,0,0,0.1,0.1c0,0,0.1,0.1,0.1,0.1c0.3,0.2,0.8,0.3,1.2,0.1c0,0,0,0,0.1,0c0.2-0.1,0.4-0.3,0.5-0.7
		c0.2-0.6,0.4-1.2,0.7-1.7c0.2-0.4,0.6-1,1-1.1c0.4-0.1,0.8,0.1,1.1,0.4C24.2,20,24.3,20.5,24.2,21z"/>
	<path class="st0" d="M15.1,22.6C15.2,22.6,15.2,22.6,15.1,22.6C15.2,22.6,15.2,22.6,15.1,22.6C15.1,22.6,15.1,22.6,15.1,22.6
		C15.1,22.6,15.1,22.6,15.1,22.6z"/>
	<path class="st0" d="M15.5,20.8C15.5,20.8,15.6,20.7,15.5,20.8C15.6,20.7,15.6,20.7,15.5,20.8C15.5,20.8,15.5,20.8,15.5,20.8
		C15.5,20.8,15.5,20.8,15.5,20.8z"/>
	<path class="st0" d="M20.3,22.8c-0.4,0.2-0.9,0.1-1.2-0.1C19.5,22.9,20,22.9,20.3,22.8z"/>
</g>
</svg>
